<svg width="256" height="256" fill="none" xmlns="http://www.w3.org/2000/svg"><path fill="#fff" d="M0 0h256v256H0z"/><path fill-rule="evenodd" clip-rule="evenodd" d="M127.5 238.383c61.239 0 110.883-49.644 110.883-110.883S188.739 16.617 127.5 16.617 16.617 66.261 16.617 127.5 66.261 238.383 127.5 238.383zm0 15.617c69.864 0 126.5-56.636 126.5-126.5S197.364 1 127.5 1 1 57.636 1 127.5 57.636 254 127.5 254z" fill="#833DAF"/><path d="M122.635 73.98c-2.219 0-6.478.462-9.978 3.47-.015.01-.113.096-.129.108-1.094.832-3.513 2.96-6.955 5.944l-.243.21H88.577a2.43 2.43 0 00-2.433 2.432v14.506a5861.355 5861.355 0 00-16.15 14.33l21.016 16.373V88.577h14.567c.38.093.776.093 1.155 0h31.748c.279.049.563.049.841 0h14.939v42.776l21.015-16.373c-.684-.608-7.784-6.934-16.15-14.33V86.144a2.43 2.43 0 00-2.433-2.433h-16.891c-.407-.365-.781-.687-1.192-1.054-2.765-2.478-4.906-4.37-5.878-5.108l-.024-.019c-.079-.068-.161-.12-.242-.185a14.27 14.27 0 00-1.135-.85 14.333 14.333 0 00-1.393-.813l-.004-.005h-.005a15.18 15.18 0 00-2.761-1.079 16.905 16.905 0 00-4.532-.618zm-21.895 26.76a2.43 2.43 0 00-1.742.701 2.432 2.432 0 001.742 4.165h43.789a2.445 2.445 0 001.742-.7 2.44 2.44 0 00.537-2.672 2.436 2.436 0 00-2.279-1.494H100.74zm0 12.164a2.428 2.428 0 00-2.278 1.494 2.428 2.428 0 00.536 2.671 2.436 2.436 0 001.742.7h26.76a2.435 2.435 0 002.279-1.493 2.444 2.444 0 000-1.878 2.442 2.442 0 00-1.337-1.319c-.3-.12-.62-.18-.942-.175h-26.76zm-31.625 7.626v46.226c.195-.149.374-.294.57-.447 8.452-6.573 20.053-15.596 29.103-22.621L69.115 120.53zm107.039 0l-29.824 23.277c8.874 7.003 20.458 16.136 29.824 23.509V120.53zm-53.519 13.836c-.611 0-3.813.122-7.075 2.508-2.236 1.652-28.679 22.227-42.886 33.279-1.343 1.044-2.513 1.958-3.559 2.765v5.669a2.43 2.43 0 002.433 2.432h102.173a2.43 2.43 0 002.433-2.432v-5.08c-17.1-13.457-44.623-35.167-46.525-36.694-2.662-2.127-5.525-2.447-6.994-2.447z" fill="#180D1C"/><path d="M146.962 76.413h36.49v19.462h-36.49V76.413z" fill="#fff"/><path d="M193.183 86.144l-7.161-5.252 3.572-8.128-8.824-.966-.967-8.825-8.127 3.572-5.253-7.16-5.253 7.16-8.127-3.572-.967 8.825-8.824.966 3.572 8.128-7.161 5.252 7.161 5.253-3.572 8.127 8.824.967.967 8.824 8.127-3.571 5.253 7.16 5.253-7.16 8.127 3.571.967-8.824 8.824-.967-3.572-8.127 7.161-5.253zm-33.659 6.69h-1.864l-4.939-9.643-.044.018v9.625h-1.864v-13.38h1.864l4.939 9.643.044-.017v-9.626h1.855v13.38h.009zm9.347 0h-7.012v-13.38h6.96v1.795h-5.096v3.772h4.364v1.794h-4.364v4.242h5.148v1.777zm11.272 0h-1.69l-2.23-9.52h-.053l-2.23 9.52h-1.698l-2.639-13.38h1.951l1.655 9.643h.043l2.117-9.643h1.638l2.143 9.652h.043l1.638-9.652h1.96l-2.648 13.38z" fill="#833DAF"/></svg>